<mxfile host="app.diagrams.net" modified="2023-04-26T17:17:51.741Z" agent="Mozilla/5.0 (Macintosh; Intel Mac OS X 10_15_7) AppleWebKit/537.36 (KHTML, like Gecko) Chrome/112.0.0.0 Safari/537.36" version="21.2.2" etag="mXhy_eoNezfhLCvqs3ND" type="github">
  <diagram name="Page-1" id="Rk7w6HHk9pRMZBYdX3ba">
    <mxGraphModel>
      <root>
        <mxCell id="0" />
        <mxCell id="1" parent="0" />
      </root>
    </mxGraphModel>
  </diagram>
</mxfile>
